<?xml version="1.0" encoding="UTF-8" standalone="no"?>
<svg
   xmlns:dc="http://purl.org/dc/elements/1.1/"
   xmlns:cc="http://creativecommons.org/ns#"
   xmlns:rdf="http://www.w3.org/1999/02/22-rdf-syntax-ns#"
   xmlns:svg="http://www.w3.org/2000/svg"
   xmlns="http://www.w3.org/2000/svg"
   xmlns:sodipodi="http://sodipodi.sourceforge.net/DTD/sodipodi-0.dtd"
   xmlns:inkscape="http://www.inkscape.org/namespaces/inkscape"
   aria-hidden="true"
   focusable="false"
   data-prefix="fas"
   data-icon="house-user"
   class="svg-inline--fa fa-house-user fa-w-18"
   role="img"
   viewBox="0 0 576 512.62195"
   version="1.1"
   id="svg4"
   sodipodi:docname="houseInk.svg"
   inkscape:version="0.92.3 (2405546, 2018-03-11)"
   width="576"
   height="512.62195">
  <metadata
     id="metadata10">
    <rdf:RDF>
      <cc:Work
         rdf:about="">
        <dc:format>image/svg+xml</dc:format>
        <dc:type
           rdf:resource="http://purl.org/dc/dcmitype/StillImage" />
        <dc:title></dc:title>
      </cc:Work>
    </rdf:RDF>
  </metadata>
  <defs
     id="defs8" />
  <sodipodi:namedview
     pagecolor="#ffffff"
     bordercolor="#666666"
     borderopacity="1"
     objecttolerance="10"
     gridtolerance="10"
     guidetolerance="10"
     inkscape:pageopacity="0"
     inkscape:pageshadow="2"
     inkscape:window-width="1920"
     inkscape:window-height="1058"
     id="namedview6"
     showgrid="false"
     showguides="true"
     inkscape:guide-bbox="true"
     inkscape:zoom="0.17059408"
     inkscape:cx="-2129.3542"
     inkscape:cy="615.28905"
     inkscape:window-x="-8"
     inkscape:window-y="-8"
     inkscape:window-maximized="1"
     inkscape:current-layer="svg4"
     fit-margin-top="0"
     fit-margin-left="0"
     fit-margin-right="0"
     fit-margin-bottom="0">
    <sodipodi:guide
       position="0.37611512,0.78645551"
       orientation="1,0"
       id="guide4524"
       inkscape:locked="false" />
    <sodipodi:guide
       position="0.53631231,0.73073475"
       orientation="1,0"
       id="guide4526"
       inkscape:locked="false" />
    <sodipodi:guide
       position="0.45273118,0.87264856"
       orientation="0,1"
       id="guide4528"
       inkscape:locked="false" />
  </sodipodi:namedview>
  <path
     d="M 570.69,236.27 512,184.44 V 48 c 0,-8.836556 -7.16344,-16 -16,-16 h -64 c -8.83656,0 -16,7.163444 -16,16 V 99.669996 L 314.78,10.3 C 308.5,4.61 296.53,0 288,0 279.47,0 267.54,4.61 261.26,10.3 l -256,226 c -3.1541798,3.18682 -5.02631884,7.42227 -5.26,11.9 0.20436914,3.91102 1.6354084,7.65831 4.09,10.71 L 25.5,282.7 c 3.336782,2.99446 7.539186,4.85052 12,5.3 3.867436,-0.38654 7.559729,-1.80612 10.69,-4.11 l 15.9,-14 V 480 c 0,17.67311 14.326888,32 32,32 h 120.55231 c 0.86929,-14.71028 -1.14426,-104.04331 0,-128.38063 0,-17.60752 92.27358,-19.55618 92.28956,1.54735 0.0206,27.21314 -0.016,115.42939 -0.63578,127.45525 L 480,512 c 17.67299,-0.064 32,-14.32689 32,-32 V 269.88 l 15.91,14 c 3.14414,2.30079 6.84424,3.72284 10.72,4.12 4.42083,-0.46209 8.57902,-2.32224 11.87,-5.31 l 21.41,-23.81 c 2.29805,-3.13167 3.7108,-6.82417 4.09,-10.69 -0.45927,-4.4364 -2.31909,-8.61137 -5.31,-11.92 z"
     id="path2"
     inkscape:connector-curvature="0"
     style="fill:currentColor"
     sodipodi:nodetypes="ccssssccsccccccccssccscssccccccc" />
</svg>
