<svg
  class="bi bi-person-bounding-box"
  version="1.1"
  viewBox="0 0 576 512.62"
  xmlns="http://www.w3.org/2000/svg"
  fill="currentColor"
  width="1em"
  height="1em"
>
  <path fill-rule="evenodd" d="m570.69 236.27-58.69-51.83v-136.44c0-8.8366-7.1634-16-16-16h-64c-8.8366 0-16 7.1634-16 16v51.67l-101.22-89.37c-6.28-5.69-18.25-10.3-26.78-10.3s-20.46 4.61-26.74 10.3l-256 226c-3.1542 3.1868-5.0263 7.4223-5.26 11.9 0.20437 3.911 1.6354 7.6583 4.09 10.71l21.41 23.79c3.3368 2.9945 7.5392 4.8505 12 5.3 3.8674-0.38654 7.5597-1.8061 10.69-4.11l15.9-14v210.11c0 17.673 14.327 32 32 32h120.55c0.86929-14.71-1.1443-104.04 0-128.38 0-17.608 92.274-19.556 92.29 1.5474 0.0206 27.213-0.016 115.43-0.63578 127.46l171.7-0.62197c17.673-0.064 32-14.327 32-32v-210.12l15.91 14c3.1441 2.3008 6.8442 3.7228 10.72 4.12 4.4208-0.46209 8.579-2.3222 11.87-5.31l21.41-23.81c2.298-3.1317 3.7108-6.8242 4.09-10.69-0.45927-4.4364-2.3191-8.6114-5.31-11.92z" />
</svg>
