<?xml version="1.0" encoding="UTF-8" standalone="no"?>
<!-- Created with Inkscape (http://www.inkscape.org/) -->

<svg
   xmlns:dc="http://purl.org/dc/elements/1.1/"
   xmlns:cc="http://creativecommons.org/ns#"
   xmlns:rdf="http://www.w3.org/1999/02/22-rdf-syntax-ns#"
   xmlns:svg="http://www.w3.org/2000/svg"
   xmlns="http://www.w3.org/2000/svg"
   xmlns:sodipodi="http://sodipodi.sourceforge.net/DTD/sodipodi-0.dtd"
   xmlns:inkscape="http://www.inkscape.org/namespaces/inkscape"
   width="38.4189mm"
   height="53.849743mm"
   viewBox="0 0 38.4189 53.849743"
   version="1.1"
   id="svg996"
   inkscape:version="0.92.3 (2405546, 2018-03-11)"
   sodipodi:docname="logo.svg">
  <defs
     id="defs990" />
  <sodipodi:namedview
     id="base"
     pagecolor="#ffffff"
     bordercolor="#666666"
     borderopacity="1.0"
     inkscape:pageopacity="0.0"
     inkscape:pageshadow="2"
     inkscape:zoom="1.7034092"
     inkscape:cx="199.53066"
     inkscape:cy="71.27345"
     inkscape:document-units="mm"
     inkscape:current-layer="layer1"
     showgrid="false"
     inkscape:window-width="1920"
     inkscape:window-height="1058"
     inkscape:window-x="-8"
     inkscape:window-y="-8"
     inkscape:window-maximized="1"
     fit-margin-top="0"
     fit-margin-left="0"
     fit-margin-right="0"
     fit-margin-bottom="0" />
  <metadata
     id="metadata993">
    <rdf:RDF>
      <cc:Work
         rdf:about="">
        <dc:format>image/svg+xml</dc:format>
        <dc:type
           rdf:resource="http://purl.org/dc/dcmitype/StillImage" />
        <dc:title></dc:title>
      </cc:Work>
    </rdf:RDF>
  </metadata>
  <g
     inkscape:label="Camada 1"
     inkscape:groupmode="layer"
     id="layer1"
     transform="translate(-125.91806,-90.150497)">
    <g
       id="g1643"
       transform="matrix(0.8007174,0,0,1,28.594617,-0.23298865)">
      <path
         style="fill:#000000;fill-opacity:1;stroke:#000000;stroke-width:0.23968118px;stroke-linecap:butt;stroke-linejoin:miter;stroke-opacity:1"
         d="m 157.44762,119.26651 -2.97431,2.14172 c -9.31545,4.06894 -53.18462,2.30897 -20.63987,-5.65634 -22.03668,8.72442 14.23143,5.66601 23.61418,3.51462 z"
         id="path826-4"
         inkscape:connector-curvature="0"
         sodipodi:nodetypes="cccc" />
      <path
         style="fill:#000000;fill-opacity:1;stroke:#000000;stroke-width:0.23968118px;stroke-linecap:butt;stroke-linejoin:miter;stroke-opacity:1"
         d="m 157.30625,128.12007 -2.97431,2.14172 c -9.31545,4.06894 -53.18462,2.30897 -20.63986,-5.65634 -22.03669,8.72442 14.23142,5.66601 23.61417,3.51462 z"
         id="path826-40"
         inkscape:connector-curvature="0"
         sodipodi:nodetypes="cccc" />
      <path
         style="fill:#000000;fill-opacity:1;stroke:#000000;stroke-width:0.23947771px;stroke-linecap:butt;stroke-linejoin:miter;stroke-opacity:1"
         d="m 157.05795,137.32428 -2.96926,2.14172 c -9.29964,4.06894 -53.09436,2.30897 -20.60484,-5.65634 -21.99929,8.72442 14.20727,5.66601 23.5741,3.51462 z"
         id="path826-5"
         inkscape:connector-curvature="0"
         sodipodi:nodetypes="cccc" />
    </g>
    <path
       style="fill:#000000;fill-opacity:1;stroke:#000000;stroke-width:0.14701024px;stroke-linecap:butt;stroke-linejoin:miter;stroke-opacity:1"
       d="m 126.06169,142.33921 c 10.06767,0.62034 24.41789,0.83903 30.22473,-2.85881 0.93334,4.71234 -19.01671,5.70176 -30.22473,2.85881 z"
       id="path890-1"
       inkscape:connector-curvature="0"
       sodipodi:nodetypes="ccc" />
    <g
       id="g973"
       transform="matrix(0.62435001,0,0,0.55056339,90.806389,-5.6508785)">
      <path
         sodipodi:nodetypes="ccc"
         inkscape:connector-curvature="0"
         id="path922-3"
         d="m 83.373936,221.66338 c -23.147819,-27.38247 19.409444,-22.48883 9.164219,-47.60734 3.729951,24.0323 -40.16689,21.67452 -9.164219,47.60734 z"
         style="fill:#000000;fill-opacity:1;stroke:#000000;stroke-width:0.26458332px;stroke-linecap:butt;stroke-linejoin:miter;stroke-opacity:1" />
      <path
         sodipodi:nodetypes="ccc"
         inkscape:connector-curvature="0"
         id="path924-7"
         d="M 87.101754,224.61457 C 97.457895,214.0956 64.486712,206.7755 102.63433,191.84084 c -33.204907,18.61721 5.23714,19.51102 -15.532576,32.77373 z"
         style="fill:#000000;fill-opacity:1;stroke:#000000;stroke-width:0.26458332px;stroke-linecap:butt;stroke-linejoin:miter;stroke-opacity:1" />
    </g>
    <path
       style="fill:#000000;fill-opacity:1;stroke:#210d22;stroke-width:0.18132877px;stroke-linecap:butt;stroke-linejoin:miter;stroke-opacity:1"
       d="m 156.77366,120.01001 c 11.27288,-4.95965 9.23499,19.29647 -2.3822,15.57855 l 1.60092,-1.24859 c 7.17313,1.04589 9.89548,-18.85298 -1.52263,-11.99409 0.69459,-0.57941 1.45863,-1.61302 2.30391,-2.33587 z"
       id="path1621"
       inkscape:connector-curvature="0"
       sodipodi:nodetypes="ccccc" />
  </g>
</svg>
