<?xml version="1.0" encoding="UTF-8" standalone="no"?>
<!-- Created with Inkscape (http://www.inkscape.org/) -->

<svg
   xmlns:dc="http://purl.org/dc/elements/1.1/"
   xmlns:cc="http://creativecommons.org/ns#"
   xmlns:rdf="http://www.w3.org/1999/02/22-rdf-syntax-ns#"
   xmlns:svg="http://www.w3.org/2000/svg"
   xmlns="http://www.w3.org/2000/svg"
   xmlns:sodipodi="http://sodipodi.sourceforge.net/DTD/sodipodi-0.dtd"
   xmlns:inkscape="http://www.inkscape.org/namespaces/inkscape"
   width="63.044323mm"
   height="22.050367mm"
   viewBox="0 0 63.044324 22.050367"
   version="1.1"
   id="svg996"
   inkscape:version="0.92.3 (2405546, 2018-03-11)"
   sodipodi:docname="logotipo.svg">
  <defs
     id="defs990" />
  <sodipodi:namedview
     id="base"
     pagecolor="#c4c4c4"
     bordercolor="#666666"
     borderopacity="1.0"
     inkscape:pageopacity="0"
     inkscape:pageshadow="2"
     inkscape:zoom="1.8666066"
     inkscape:cx="17.373656"
     inkscape:cy="103.14242"
     inkscape:document-units="mm"
     inkscape:current-layer="layer1"
     showgrid="false"
     inkscape:window-width="1920"
     inkscape:window-height="1058"
     inkscape:window-x="-8"
     inkscape:window-y="-8"
     inkscape:window-maximized="1"
     fit-margin-top="0"
     fit-margin-left="0"
     fit-margin-right="0"
     fit-margin-bottom="0"
     inkscape:showpageshadow="false"
     borderlayer="false"
     showborder="true"
     inkscape:pagecheckerboard="false" />
  <metadata
     id="metadata993">
    <rdf:RDF>
      <cc:Work
         rdf:about="">
        <dc:format>image/svg+xml</dc:format>
        <dc:type
           rdf:resource="http://purl.org/dc/dcmitype/StillImage" />
        <dc:title></dc:title>
      </cc:Work>
    </rdf:RDF>
  </metadata>
  <g
     inkscape:label="Camada 1"
     inkscape:groupmode="layer"
     id="layer1"
     transform="translate(-165.40948,-118.76103)">
    <g
       aria-label="MUGS"
       style="font-style:normal;font-weight:normal;font-size:0.98901248px;line-height:6.61458302px;font-family:sans-serif;letter-spacing:0px;word-spacing:0px;fill:#ffffff;fill-opacity:1;stroke:none;stroke-width:0.26458332"
       id="text823"
       transform="translate(-1.3797189,13.45226)">
      <path
         d="m 178.61372,105.7378 q 1.03857,-0.24836 1.28693,0.11289 0.27093,0.36124 0.22578,1.39982 -0.11289,1.85138 0.24835,4.42524 0.36125,2.57387 1.08374,4.24463 0.2032,-0.51929 0.49671,-1.24178 0.31609,-0.74507 0.88053,-1.94169 0.56444,-1.19662 1.28693,-2.30293 0.72249,-1.12889 1.53529,-2.19005 0.83538,-1.06115 1.85138,-1.76106 1.016,-0.72249 2.00942,-0.88054 1.12889,0 1.6256,0.54187 0.51929,0.54187 -0.0226,1.15147 -1.6256,1.78364 -3.02542,6.47982 -1.37724,4.69618 -1.73849,8.96338 -0.0903,0.92568 -0.27093,1.26435 -1.37724,2.52871 -2.05458,-0.54187 -0.33866,-1.60302 -0.36124,-3.6576 -0.0226,-0.90311 0.13546,-2.68675 0.15805,-1.78365 0.49672,-3.58987 -0.38383,0.54187 -0.69992,1.03858 -0.29351,0.49671 -0.54186,1.03858 -0.22578,0.54186 -0.36125,0.88053 -0.11289,0.33867 -0.33866,0.99342 -0.22578,0.63218 -0.31609,0.92569 -0.97085,0.11289 -2.12231,-1.19662 -1.15147,-1.33209 -1.73849,-2.88996 -0.83538,2.93512 -1.08374,3.6576 -0.0677,0.18063 -0.27093,0.74507 -0.2032,0.56445 -0.31609,0.8128 -0.0903,0.22578 -0.29351,0.67733 -0.18062,0.45156 -0.38382,0.85796 -0.2032,0.38382 -0.47413,0.79022 -0.83538,1.30951 -2.34809,1.96427 -1.51271,0.65475 -2.82223,0.29351 -0.54186,-0.18062 -1.06115,-0.45156 -0.51929,-0.27093 -0.88053,-0.54186 -0.36125,-0.24836 -0.65476,-0.51929 -0.29351,-0.24836 -0.45156,-0.4064 -0.13546,-0.15805 -0.15804,-0.22578 0,0 -0.0452,-0.0903 -0.38382,-0.65476 0.2032,-0.6096 0.29352,0 0.79023,0.15804 0.90311,0.33867 1.78364,0.0452 0.90311,-0.31609 1.71591,-1.30951 0.83538,-1.016 1.46756,-1.98685 0.63218,-0.99342 1.35466,-2.68675 0.74507,-1.69333 1.10632,-2.61902 0.38382,-0.94827 0.97084,-2.59645 0.49671,-1.28693 0.67733,-1.78364 -0.72249,0.4064 -1.4224,0.94826 -0.85795,0.76765 -1.30951,1.33209 -0.45155,0.56445 -0.58702,0.88054 -0.11289,0.31609 -0.27093,0.92569 -0.0226,0.13546 -0.0452,0.22577 -0.13547,0.33867 -0.4064,0.0452 -0.2032,-0.24836 -0.29351,-0.76765 -0.22578,-1.24177 1.06116,-3.07057 0.8128,-1.15147 2.07715,-1.98685 1.26436,-0.83538 2.79965,-1.28693 z"
         style="font-style:normal;font-variant:normal;font-weight:normal;font-stretch:normal;font-size:22.57777786px;font-family:'Brigest Script';-inkscape-font-specification:'Brigest Script';fill:#ffffff;stroke-width:0.26458332"
         id="path824"
         inkscape:connector-curvature="0" />
      <path
         d="m 195.78588,106.00873 q 1.28693,-0.4064 1.98684,0.69991 0.15805,0.36125 0.2032,0.69991 0.0677,0.33867 0.0677,0.56445 0.0226,0.2032 -0.0903,0.49671 -0.0903,0.29351 -0.13547,0.4064 -0.0452,0.11289 -0.22578,0.4064 -0.18062,0.29351 -0.2032,0.36124 -2.00942,3.31894 -2.55129,7.58614 -0.45155,3.43182 0.38383,4.71875 0.85795,1.35467 2.61902,-0.74506 0.58702,-0.69991 1.24178,-1.76107 0.0451,-1.53529 0.27093,-3.34151 0.22578,-1.80622 0.79022,-4.04142 0.58702,-2.25778 1.37725,-3.43183 0.6096,-0.92568 1.37724,-1.39982 0.79022,-0.47413 1.44498,-0.49671 0.67733,-0.0451 1.19662,0.11289 0.51929,0.13547 0.74507,0.4064 0.54186,0.56444 -0.0226,1.15147 -1.6256,1.80622 -3.11573,6.45724 -1.46756,4.62845 -1.89654,8.82791 0,0.4064 0,0.56445 0,0.18062 -0.0677,0.38382 -0.0677,0.22578 -0.2032,0.31609 -0.56445,0.33866 -1.2192,-0.97085 -0.27093,-0.67733 -0.47413,-1.71591 -2.09974,3.02542 -6.02827,1.39982 -1.30951,-0.6096 -1.96427,-2.32551 -0.63218,-1.73849 -0.31609,-4.17689 0.22578,-1.51271 0.94827,-3.79306 0.74507,-2.30294 1.64818,-4.15431 -0.36125,0.22577 -0.69991,0.49671 -0.85796,0.76764 -1.30951,1.33209 -0.45156,0.56444 -0.58703,0.88053 -0.13546,0.31609 -0.27093,0.94827 -0.0452,0.13546 -0.0452,0.2032 -0.13546,0.33866 -0.4064,0.0451 -0.22577,-0.22578 -0.31608,-0.74506 -0.22578,-1.24178 1.08373,-3.07058 0.76764,-1.10631 2.032,-1.96427 1.26435,-0.88053 2.73191,-1.33209 z"
         style="font-style:normal;font-variant:normal;font-weight:normal;font-stretch:normal;font-size:22.57777786px;font-family:'Brigest Script';-inkscape-font-specification:'Brigest Script';fill:#ffffff;stroke-width:0.26458332"
         id="path826"
         inkscape:connector-curvature="0" />
      <path
         d="m 214.22628,105.82811 q 1.15147,0 1.80622,0.6096 0.67734,0.58702 0.79023,1.55787 0.11289,0.97084 -0.13547,2.12231 -0.22578,1.15146 -0.79022,2.32551 -0.67734,1.30951 -1.6256,1.71591 -0.79022,0.33867 -0.97085,-0.27093 -0.15804,-0.6096 0.49671,-1.85138 0.45156,-0.79022 0.83538,-1.6256 0.38382,-0.83538 0.51929,-1.35467 0.13547,-0.51929 0,-0.6096 -0.0677,-0.0226 -0.13547,-0.0226 -0.8128,0.0226 -2.75448,1.80623 -1.91912,1.78364 -3.07058,3.88337 -1.016,2.05458 -1.44498,3.40925 -0.42898,1.35467 -0.47413,3.16089 0,0.72249 0.4064,1.06115 0.4064,0.31609 0.99342,0.29351 0.6096,-0.0452 1.30951,-0.33866 1.51271,-0.65476 3.27378,-2.41582 0.42898,-0.79023 0.79022,-1.53529 0.0226,-0.0677 -0.0226,-0.11289 -0.0226,-0.0677 -0.13546,-0.0452 -1.17405,0.18062 -1.8288,0.94827 -0.15805,0.2032 -0.36125,0.0451 -0.27093,-0.22577 -0.31609,-0.76764 -0.0226,-0.54187 0.27094,-1.12889 0.31608,-0.58702 0.90311,-0.8128 2.21262,-0.65475 2.73191,-0.49671 0.74506,0.0677 0.99342,1.08373 0.24836,0.99343 0.0452,2.34809 -0.13547,0.74507 -0.6096,2.05458 -0.45156,1.30951 -1.4224,3.00284 -0.97085,1.69334 -2.032,2.50614 -0.72249,0.54186 -1.55787,0.79022 -0.83538,0.24836 -1.49013,0.18062 -0.65476,-0.0451 -1.15147,-0.2032 -0.49671,-0.15804 -0.67733,-0.33866 -0.45156,-0.45156 0.18062,-0.79023 1.51271,-0.83537 3.29635,-3.11573 -2.32551,1.67076 -4.6736,1.71591 -2.28035,-0.0677 -2.6416,-2.21262 -0.2032,-1.4224 0.2032,-3.43182 0.42898,-2.032 1.35467,-4.10916 0.94827,-2.09973 2.16747,-3.97369 1.24177,-1.87395 2.79964,-3.20604 1.55787,-1.35467 3.07058,-1.69334 0.54187,-0.15804 1.08373,-0.15804 z"
         style="font-style:normal;font-variant:normal;font-weight:normal;font-stretch:normal;font-size:22.57777786px;font-family:'Brigest Script';-inkscape-font-specification:'Brigest Script';fill:#ffffff;stroke-width:0.26458332"
         id="path828"
         inkscape:connector-curvature="0" />
      <path
         d="m 226.81939,105.30882 q 1.2192,0 1.96427,0.6096 0.76764,0.58702 0.94826,1.51271 0.2032,0.92569 0,2.032 -0.18062,1.08374 -0.74506,2.09974 -0.74507,1.2192 -1.80623,1.51271 -0.83537,0.24835 -0.94826,-0.36125 -0.11289,-0.54186 0.49671,-1.51271 1.87395,-2.2352 1.03858,-3.16089 -0.6096,-0.72249 -2.21263,-0.27093 -1.89653,0.51929 -3.048,2.09973 -0.58702,0.8128 -0.8128,1.78365 -0.0677,0.24835 -0.0903,0.49671 0,0.24835 0.0452,0.54186 0.0677,0.27094 0.24835,0.42898 0.18063,0.15805 0.49671,0.24836 0.33867,0.0677 0.85796,-0.0903 1.53529,-0.11289 2.73191,0.38382 1.19662,0.47413 1.80622,1.35467 0.6096,0.88053 0.58703,2.09973 0,1.2192 -0.76765,2.50613 -1.08373,1.64818 -3.29635,3.16089 -2.21263,1.51271 -4.69618,1.80622 -2.37067,0.27094 -3.2512,-1.35466 -0.72249,-1.33209 0,-2.95769 0.74506,-1.69334 2.50613,-2.25778 0.33867,-0.11289 0.69991,-0.15804 0.31609,-0.0452 0.42898,-0.0452 0.13547,-0.0226 0.49671,-0.0226 0.36125,0 0.56445,0.0677 0.22577,0.0677 0.45155,0.24835 0.22578,0.18062 0.31609,0.47413 0.0452,0.27094 0,0.4064 -0.0226,0.11289 -0.13547,0.13547 -0.11289,0.0226 -0.29351,0.0226 -0.18062,0 -0.4064,0.0226 -1.37724,0.11289 -2.28035,1.46755 -0.65476,1.016 -0.4064,1.60302 0.11289,0.24836 0.4064,0.27094 1.28693,-0.0903 2.50613,-0.67734 1.2192,-0.6096 2.16747,-1.51271 0.67733,-0.63217 1.08373,-1.37724 0.42898,-0.76765 0.49671,-1.4224 0.0677,-0.65476 -0.24835,-1.15147 -0.31609,-0.51929 -1.10632,-0.63218 -0.79022,-0.13546 -2.07715,0.2032 -0.97085,0.0677 -1.64818,-0.22577 -0.65475,-0.29351 -0.94827,-0.79023 -0.29351,-0.49671 -0.38382,-1.10631 -0.0903,-0.63217 0,-1.17404 0.0903,-0.56445 0.27094,-1.016 0.4064,-1.03858 1.12888,-2.05458 0.74507,-1.03858 1.73849,-1.98684 1.016,-0.94827 2.37067,-1.55787 1.35467,-0.63218 2.75449,-0.72249 z"
         style="font-style:normal;font-variant:normal;font-weight:normal;font-stretch:normal;font-size:22.57777786px;font-family:'Brigest Script';-inkscape-font-specification:'Brigest Script';fill:#ffffff;stroke-width:0.26458332"
         id="path830"
         inkscape:connector-curvature="0" />
    </g>
  </g>
</svg>
